<svg width="217" height="86" viewBox="15 39 217 86" fill="none" xmlns="http://www.w3.org/2000/svg">
<path d="M68.4693 39.708L205.278 39.7166L213.023 39.7171C218.773 39.7357 222.622 39.8989 227.046 44.2749C230.783 47.9729 231.56 51.983 231.574 57.0391L231.576 94.526L231.571 104.681C231.567 111.053 231.859 115.916 226.977 120.762C222.609 125.099 218.65 125.269 212.885 125.267L205.232 125.251L179.31 125.255L73.5402 125.252L43.1602 125.255L34.4795 125.263C32.3937 125.264 30.0771 125.347 28.0201 125.049C22.1706 124.203 16.8441 119.131 15.5937 113.356C14.9792 110.518 15.0989 107.061 15.1025 104.159L15.1175 94.8678L15.1159 59.9473C15.0849 53.8225 15.0627 48.9681 19.6599 44.3397C24.2065 39.7624 28.2742 39.72 34.2508 39.7205L41.4385 39.7172L68.4693 39.708Z" fill="#1c0e25"/>
<path d="M43.5071 54.7996C44.8369 54.6389 49.7546 54.7585 51.3436 54.76L67.6673 54.766C65.7901 57.0254 63.9537 59.3185 62.159 61.6442L46.9581 61.6361C40.5891 61.6802 40.6909 65.3763 40.747 70.407C46.175 70.3476 52.459 70.2634 57.8482 70.421C56.0558 72.5147 54.2873 74.629 52.543 76.7631L46.5769 76.772L40.7415 76.7728L40.7267 97.261C38.1691 99.7976 35.8509 102.308 33.4181 104.963C33.3178 96.145 33.3965 87.1804 33.3973 78.3492L33.3974 70.4586C33.3962 68.4396 33.3109 66.4253 33.6121 64.4251C34.3942 59.2311 38.3697 55.5049 43.5071 54.7996Z" fill="#D5BC7B"/>
<path d="M148.358 69.0229L154.519 69.0102C158.101 69.0065 161.867 68.7225 164.702 71.4247C167.983 74.5311 167.949 80.4717 164.785 83.6497C162.738 85.7048 160.267 86.1749 157.498 86.2024L152.746 86.2105L152.732 95.6957C151.285 95.6778 149.8 95.6971 148.35 95.6989L148.358 69.0229Z" fill="#D5BC7B"/>
<path d="M152.767 72.8675C155.078 72.8452 159.353 72.4147 161.153 73.9811C163.26 75.8149 163.143 78.9481 161.417 81.0646C159.235 83.0157 155.715 82.4949 152.793 82.4657C152.702 79.3732 152.766 75.9817 152.767 72.8675Z" fill="#1C1228"/>
<path d="M70.2765 54.7471C72.1844 54.8299 74.2793 55.6251 75.8631 56.6535C84.0546 61.9719 85.0379 75.1428 77.8709 81.7135C76.1468 83.2943 73.9368 84.0239 71.7039 84.503C72.1388 85.0528 72.5642 85.6101 72.9798 86.1746L69.8658 87.3744L68.3265 87.9831C68.2347 85.6675 68.3073 82.9601 68.3162 80.6156C78.5896 79.1934 79.339 62.2859 68.5547 61.6113C67.4199 61.5402 66.0677 61.5996 64.9141 61.6054C66.471 59.4198 68.5859 56.8845 70.2765 54.7471Z" fill="#D5BC7B"/>
<path d="M185.961 76.5665C186.226 76.5414 186.491 76.5283 186.758 76.5273C188.872 76.5375 191.127 77.0691 192.662 78.6144C193.455 79.4179 194.021 80.4196 194.299 81.5159C194.754 83.2665 194.635 86.541 194.63 88.4379V95.6765C193.275 95.6893 191.92 95.6947 190.565 95.6925L190.549 92.946C188.326 95.8784 185.245 96.7248 181.677 95.5717C180.079 95.0556 178.985 93.9232 178.283 92.4082C177.175 89.0172 178.556 86.3216 181.937 85.249C184.562 84.4164 187.697 84.4336 190.434 84.2875C190.46 83.3383 190.533 82.683 190.089 81.8154C189.066 79.8166 186.209 79.6111 184.39 80.5093C183.33 81.0325 182.878 81.7635 182.52 82.8392C181.209 82.7877 179.834 82.6838 178.518 82.6053C179.19 78.6283 182.16 76.9056 185.961 76.5665Z" fill="#D5BC7B"/>
<path d="M188.524 87.2052C189.047 87.1507 189.92 87.1587 190.468 87.1465C190.509 91.3903 188.661 93.1009 184.395 92.638C182.629 92.0468 181.458 90.4423 182.757 88.6752C183.752 87.3216 186.86 87.3175 188.524 87.2052Z" fill="#1C1228"/>
<path d="M97.7821 69.0298L114.306 69.0234L114.303 73.0022L102.218 73.0075C102.149 75.5204 102.188 78.2164 102.179 80.7429L113.126 80.7377L113.129 83.3709C113.137 83.8033 113.19 84.1492 113.003 84.528C112.353 84.6754 110.089 84.6229 109.302 84.6226L102.185 84.6173L102.175 95.6872L97.7725 95.7132L97.7821 69.0298Z" fill="#FEFCF3"/>
<path d="M82.341 83.6939C82.4681 83.657 82.7032 83.6497 82.845 83.6387L82.896 83.7488C81.253 86.1197 79.5941 88.4795 77.9192 90.828C77.9297 89.5034 77.9266 88.1788 77.9099 86.8543C64.7098 93.3705 52.1888 100.177 41.528 110.482L33.6609 110.481L31.1172 110.487C42.6763 99.6354 62.8883 91.2107 77.8065 86.6131C76.9332 86.0478 76.1552 85.59 75.2501 85.077C77.5124 84.6132 80.084 84.0309 82.341 83.6939Z" fill="#D5BC7B"/>
<path d="M135.476 76.6616C135.876 76.6167 136.279 76.5941 136.682 76.5938C138.437 76.5931 140.26 77.1885 141.501 78.4699C143.941 80.9902 143.56 84.7819 143.551 88.0192L143.528 95.6726L139.276 95.7096L139.284 88.2727C139.288 86.8037 139.392 85.1154 139.148 83.6846C138.539 80.1243 134.908 79.5245 132.271 81.3496C130.093 83.3388 130.524 86.3349 130.499 89.0196C130.48 91.2372 130.504 93.4653 130.507 95.684L126.155 95.7099L126.17 77.0397C127.576 76.9946 129.059 77.0282 130.471 77.0382L130.496 80.1256C131.907 77.9981 132.984 77.2232 135.476 76.6616Z" fill="#FEFCF3"/>
<path d="M208.34 76.5605C215.832 76.6068 215.528 83.1393 215.525 88.6465L215.517 95.6885L211.29 95.6869C211.243 93.1165 211.313 90.5816 211.306 87.9298C211.297 85.0642 211.77 80.7688 207.857 80.2845C206.419 80.1067 205.302 80.6332 204.191 81.5243C202.305 83.5847 202.64 86.6901 202.646 89.2996L202.666 95.6708C201.239 95.6893 199.811 95.6933 198.383 95.6828L198.382 77.0176C199.782 77.0094 201.183 77.0111 202.583 77.0225L202.631 80.0203C204.113 77.7251 205.671 76.8805 208.34 76.5605Z" fill="#D5BC7B"/>
<path d="M65.8279 95.2314L65.9483 95.3335C66.1416 96.09 65.9589 100.981 66.0252 102.07C66.1651 104.365 65.605 107.031 63.8778 108.653C63.206 109.318 61.9301 110.112 60.9728 110.24C57.6335 110.689 53.6697 110.49 50.3007 110.483L50.1924 110.394L50.2066 110.199C55.3561 103.527 58.6819 99.995 65.8279 95.2314Z" fill="#D5BC7B"/>
<path d="M170.328 68.6816L174.557 68.6924L174.533 95.6957L170.32 95.698L170.328 68.6816Z" fill="#D5BC7B"/>
<path d="M117.632 77.0192L121.963 77.0107L121.945 95.7012L117.63 95.7046L117.632 77.0192Z" fill="#FEFCF3"/>
<path d="M65.0518 75.0029L66.4164 75.0116L66.4453 88.8033L62.384 90.416L61.0628 90.9551L61.0547 75.019C62.378 75.0301 63.7263 75.0097 65.0518 75.0029Z" fill="#D5BC7B"/>
<path d="M53.6448 80.9409C55.4447 80.9263 57.2448 80.9336 59.0446 80.9627C59.1101 84.5406 59.0022 88.1706 59.0684 91.7698L57.4451 92.5059C56.1628 93.0345 54.8937 93.5944 53.6387 94.185L53.6448 80.9409Z" fill="#D5BC7B"/>
<path d="M46.148 87.1436L51.5505 87.1439L51.5496 95.1239L50.0029 95.8792C48.7205 96.513 47.3633 97.1556 46.1318 97.8722L46.148 87.1436Z" fill="#D5BC7B"/>
<path d="M119.561 68.4848C120.952 68.3882 122.168 69.4183 122.304 70.8094C122.44 72.2004 121.448 73.4477 120.064 73.6243C119.133 73.7431 118.211 73.3453 117.658 72.586C117.104 71.8265 117.006 70.8254 117.402 69.9724C117.797 69.1195 118.624 68.5497 119.561 68.4848Z" fill="#FEFCF3"/>
</svg>
