<svg width="201" height="202" viewBox="0 0 201 202" fill="none" xmlns="http://www.w3.org/2000/svg">
<path d="M47.74 11.396C50.4098 11.2997 52.9507 11.359 55.6057 11.3598L70.4512 11.3623L120.556 11.3594L142.403 11.3616C147.54 11.3447 154.371 11.0642 159.289 11.9556C165.698 13.1668 171.658 16.1107 176.528 20.471C183.611 26.8112 188.119 35.499 188.61 45.068C188.793 48.6377 188.746 52.1711 188.743 55.743L188.74 70.3713L188.744 114.751L188.745 142.837C188.745 147.733 188.873 152.857 188.565 157.73C188.09 165.23 184.384 173.006 179.424 178.525C174.062 184.461 166.907 188.46 159.061 189.909C157.269 190.233 155.207 190.375 153.376 190.474C152.842 190.548 152.224 190.555 151.684 190.559L79.3681 190.555L59.1813 190.56C53.5583 190.564 46.1965 190.822 40.7832 189.651C34.0544 188.176 27.888 184.792 23.0162 179.9C18.0518 174.94 14.5175 168.404 13.1116 161.495C12.6628 159.289 12.4834 155.874 12.4767 153.636L12.4876 77.7389L12.4834 56.4371C12.4828 51.5303 12.2126 44.6546 13.1801 40.0339C14.6528 33.1154 18.1108 26.7823 23.1266 21.8176C29.5064 15.3829 38.6875 11.4137 47.74 11.396Z" fill="#1B0E26"/>
<path d="M77.1004 45.1172C78.0474 44.9995 80.8527 45.0628 81.8911 45.0635L91.6088 45.0712L123.737 45.0849C122.643 46.3664 121.345 48.1328 120.28 49.4866L112.616 59.3235L106.66 59.3143L87.9293 59.3101C85.4629 59.3086 79.5071 59.1502 77.4379 59.5994C75.5646 60 73.8481 60.9404 72.4983 62.3055C68.7246 66.139 69.3884 71.6313 69.4037 76.6392C80.5349 76.6379 91.833 76.5307 102.946 76.6631L92.8185 89.5705L79.4483 89.5651L69.4039 89.5678L69.396 131.233C64.9543 135.122 58.9947 141.492 55.271 146.006C55.1972 139.758 55.2593 133.387 55.2588 127.131L55.2569 91.3703L55.2531 75.2965C55.2521 72.1825 55.0938 67.5097 55.6105 64.5507C56.3655 60.406 58.1944 56.5344 60.9128 53.3265C65.0014 48.5276 70.8302 45.5716 77.1004 45.1172Z" fill="#DCC57F"/>
<path d="M128.876 45.2324C132.324 45.7853 135.628 47.0212 138.596 48.8682C154.99 58.9602 157.332 83.5388 144.651 97.53C140.921 101.646 136.411 103.811 131.091 105.027C131.616 106.259 132.346 107.648 132.92 108.911C130.874 109.603 128.842 110.338 126.827 111.115C125.937 111.439 125.053 111.78 124.175 112.137L124.171 97.405C138.925 96.0482 145.142 73.896 135.071 63.8034C129.947 58.6676 124.567 59.2667 117.981 59.2694C119.11 57.9067 120.296 56.2997 121.394 54.8907L128.876 45.2324Z" fill="#DCC57F"/>
<path d="M142.837 109.109L142.912 109.124C142.905 109.374 133.102 114.295 132.125 114.816C110.652 126.291 88.1957 139.547 70.8392 156.931L50.6303 156.931L50.5107 156.893C50.594 156.564 52.1055 155.337 52.4852 155.01C54.4279 153.318 56.4144 151.677 58.4426 150.089C76.1841 136.154 98.3594 125.593 119.263 117.349C126.44 114.518 135.444 111.173 142.837 109.109Z" fill="#DCC57F"/>
<path d="M119.827 126.352C119.977 126.596 119.938 127.206 119.938 127.533L119.936 137.376C119.944 143.503 120.553 148.506 115.864 153.297C111.514 157.74 106.525 156.934 100.89 156.934L88.9299 156.929L88.8613 156.87L88.8736 156.696C97.8547 143.831 106.762 134.962 119.827 126.352Z" fill="#DCC57F"/>
<path d="M109.795 86.3135L119.955 86.316V113.769L117.021 114.902C114.597 115.859 112.185 116.848 109.785 117.867L109.795 86.3135Z" fill="#DCC57F"/>
<path d="M95.5137 98.0508L105.665 98.061L105.641 119.646L102.831 120.857C100.382 121.936 97.9467 123.046 95.5256 124.186L95.5137 98.0508Z" fill="#DCC57F"/>
<path d="M81.0352 109.861C84.4202 109.813 87.9333 109.866 91.3288 109.87C91.3069 115.241 91.2522 120.809 91.3317 126.169L88.0918 127.803C85.7228 129.009 83.3733 130.25 81.0437 131.531L81.0352 109.861Z" fill="#DCC57F"/>
<path d="M152.938 102.905L153.158 102.883L153.199 103.008C152.342 104.372 150.956 106.202 149.991 107.58L143.286 117.247C143.28 115.628 143.253 114.01 143.204 112.392C143.187 111.28 143.196 110.001 143.049 108.913C141.479 107.891 139.639 106.842 138.009 105.902C142.475 104.863 148.365 103.744 152.938 102.905Z" fill="#DCC57F"/>
</svg>
